<svg xmlns="http://www.w3.org/2000/svg" width="72" height="34" viewBox="0 0 72 34">
    <path fill="#FFF" fill-rule="evenodd" d="M38.782 0v1.686h-2.727v2.23h1.2v3.265h9.163v-.544h1.691v.544H55.2v.544h.545v3.264H55.2v13.6h3.818l1.691-1.034v-1.033h.491v.49h2.236v-.545h3.273v.544h2.073v-.49h.654v10.337l2.564.108V34H0v-1.034h3.818V22.63h.655v.49h2.072v-.544h3.273v.49h2.237v-.49h.49v.544l1.637 1.686h3.382l.054-13.654v.109h-.545V7.834l.545-.544h5.891v-.544H25.2v.544h9.273V4.026h1.036V0h3.273zM12.109 23.664H4.527v9.248h.982V25.35h.546v7.562H7.2v-8.214h-.655v-.544h3.273v.49h-.49v8.214h1.2v-7.562h.545v7.562l1.036.054v-9.248zm56.673-.054H61.2v9.248h1.036v-7.562h.71v7.562h1.036v-8.215h-.546V24.1h3.273v.544h-.654v8.215h1.036v-7.562h.654v7.562h1.037V23.61zm-9.818 1.686H14.345v7.562h44.619v-7.562zm-30.982 5.331v1.741H26.29v-1.74h1.69zm2.727 0v1.741h-1.69v-1.686l1.69-.055zm11.946 0l1.69.055v1.686h-1.69v-1.74zm4.418 0v1.741h-1.691v-1.686l1.69-.055zm8.127 0v1.687h-1.582v-1.687H55.2zm2.782 0v1.687H56.4v-1.687h1.582zm-16.364 0v1.687h-1.582v-1.687h1.582zm-5.509 0v1.687h-1.582v-1.687h1.582zm-2.727 0v1.687H31.8v-1.687h1.582zm5.454 0v1.687h-1.581v-1.687h1.581zm-13.581 0v1.687h-1.582v-1.687h1.582zm-2.782 0v1.687H20.89v-1.687h1.582zm-2.728 0v1.687h-1.581v-1.687h1.581zm-2.727 0v1.687h-1.582v-1.687h1.582zm35.455 0v1.687H50.89v-1.687h1.582zm-2.728 0v1.687h-1.581v-1.687h1.581zM17.018 25.84v4.298h-1.582V25.84h1.582zm8.237 0v4.298h-1.582V25.84h1.582zm2.727 0v4.298H26.29V25.84h1.69zm2.727 0v4.298h-1.69V25.84h1.69zm2.673 0v4.298H31.8V25.84h1.582zm2.727 0v4.298h-1.582V25.84h1.582zm2.727 0v4.298h-1.581V25.84h1.581zm2.782 0v4.298h-1.582V25.84h1.582zm2.727 0v4.298h-1.69V25.84h1.69zm2.728 0v4.298h-1.691V25.84h1.69zm5.4 0v4.298H50.89V25.84h1.582zm2.727 0v4.298h-1.582V25.84H55.2zm2.782 0v4.298H56.4V25.84h1.582zm-38.237 0v4.298h-1.581V25.84h1.581zm2.728 0v4.298H20.89V25.84h1.582zm27.272 0v4.298h-1.581V25.84h1.581zM18.11 9.03h-.49v2.122h.49v13.654h1.2v-1.142h1.418v1.142h.655v-1.142h1.582v1.142h.654v-1.142H25.2v1.142h.655v-1.142h1.418v1.142h.654v-1.142h1.582v1.142h.655v-1.142h1.581v1.142h.655v-1.142h1.418v1.142h.655v-1.142h1.582v1.142h.654v-1.142h1.582v1.142h.654v-1.142h1.419v1.142h.654v-1.142H42.6v1.142h.655v-1.142h1.581v1.142h.655v-1.142h1.418v1.142h.655v-1.142h1.581v1.142h.655v-1.142h1.582v1.142h.654v-1.142h1.419v1.142h1.2V11.098h.49V9.03H54.6v1.687h-.655V9.03h-.381v1.687h-.655V9.03h-.382v1.687h-.654V9.03h-.546v1.687h-.654V9.03h-.437v1.687h-.6V9.03h-.381v1.687H48.6V9.03h-.49v1.687h-.655V9.03h-.382v1.687h-.655V9.03h-.382v1.687h-.654V9.03h-.546v1.687h-.654V9.03h-.437v1.687h-.654V9.03h-.382v1.687h-.654V9.03h-.546v1.687h-.654V9.03h-.382v1.687h-.655V9.03h-.382v1.687h-.654V9.03h-.491v1.687h-.655V9.03h-.381v1.687H36.6V9.03h-.382v1.687h-.654V9.03h-.546v1.687h-.654V9.03h-.382v1.687h-.655V9.03h-.382v1.687h-.654V9.03h-.546v1.687h-.654V9.03h-.382v1.687h-.654V9.03h-.382v1.687h-.655V9.03h-.545v1.687h-.655V9.03h-.382v1.687h-.654V9.03H26.4v1.687h-.655V9.03H25.2v1.687h-.655V9.03h-.381v1.687h-.655V9.03h-.382v1.687h-.654V9.03h-.546v1.687h-.654V9.03h-.382v1.687h-.655V9.03h-.381v1.687H19.2V9.03h-.545v1.687h-.546V9.03zm9.164 13.437v.599h-1.418v-.599h1.418zm19.636 0v.599h-1.418v-.599h1.418zm4.473 0v.599H49.8v-.599h1.582zm-19.637 0v.599h-1.581v-.599h1.581zm-2.236 0v.599h-1.582v-.599h1.582zm4.31 0v.599H32.4v-.599h1.418zm2.236 0v.599h-1.582v-.599h1.582zm2.236 0v.599h-1.582v-.599h1.582zm6.545 0v.599h-1.581v-.599h1.581zm-2.236 0v.599h-1.582v-.599H42.6zm-17.4 0v.599h-1.582v-.599H25.2zm15.218 0v.599h-1.473v-.599h1.473zm-17.454 0v.599h-1.582v-.599h1.582zm30.49 0v.599h-1.418v-.599h1.419zm-32.727 0v.599H19.31v-.599h1.418zm28.418 0v.599h-1.581v-.599h1.581zM44.836 20.4v1.197h-1.581V20.4h1.581zm2.073 0v1.197h-1.418V20.4h1.418zm-10.854 0v1.197h-1.582V20.4h1.582zm6.545 0v1.197h-1.582V20.4H42.6zm-10.855 0v1.197h-1.581V20.4h1.581zm-2.236 0v1.197h-1.582V20.4h1.582zm-2.182 0v1.197h-1.472V20.4h1.472zm-2.127 0v1.197h-1.582V20.4H25.2zm-2.236 0v1.197h-1.582V20.4h1.582zm-2.237 0v1.197H19.31V20.4h1.418zm19.691 0v1.197h-1.473V20.4h1.473zm-2.127 0v1.197h-1.582V20.4h1.582zm15.164 0v1.197h-1.419V20.4h1.419zm-2.073 0v1.197H49.8V20.4h1.582zm-2.237 0v1.197h-1.581V20.4h1.581zm-15.327 0v1.197H32.4V20.4h1.418zm17.564-2.23v1.196H49.8V18.17h1.582zm-4.473 0v1.196h-1.418V18.17h1.418zm-26.182 0v1.196H19.31V18.17h1.418zm2.237 0v1.196h-1.582V18.17h1.582zm2.236 0v1.196h-1.582V18.17H25.2zm2.127 0v1.196h-1.472V18.17h1.472zm2.182 0v1.196h-1.582V18.17h1.582zm2.236 0v1.196h-1.581V18.17h1.581zm2.073 0v1.196H32.4V18.17h1.418zm2.237 0v1.196h-1.582V18.17h1.582zm8.781 0v1.196h-1.581V18.17h1.581zm-2.236 0v1.196h-1.582V18.17H42.6zm-2.182 0v1.196h-1.473V18.17h1.473zm-2.127 0v1.196h-1.582V18.17h1.582zm15.164 0v1.196h-1.419V18.17h1.419zm-4.31 0v1.196h-1.581V18.17h1.581zm0-2.122v1.197h-1.581v-1.197h1.581zm2.237 0v1.197H49.8v-1.197h1.582zm2.073 0v1.197h-1.419v-1.197h1.419zm-15.164 0v1.197h-1.582v-1.197h1.582zm2.127 0v1.197h-1.473v-1.197h1.473zm2.182 0v1.197h-1.582v-1.197H42.6zm2.236 0v1.197h-1.581v-1.197h1.581zm2.073 0v1.197h-1.418v-1.197h1.418zm-10.854 0v1.197h-1.582v-1.197h1.582zm-2.237 0v1.197H32.4v-1.197h1.418zm-2.073 0v1.197h-1.581v-1.197h1.581zm-2.236 0v1.197h-1.582v-1.197h1.582zm-2.182 0v1.197h-1.472v-1.197h1.472zm-2.127 0v1.197h-1.582v-1.197H25.2zm-2.236 0v1.197h-1.582v-1.197h1.582zm-2.237 0v1.197H19.31v-1.197h1.418zm0-2.176v1.197H19.31v-1.197h1.418zm2.237 0v1.197h-1.582v-1.197h1.582zm26.181 0v1.197h-1.581v-1.197h1.581zm2.237 0v1.197H49.8v-1.197h1.582zm2.073 0v1.197h-1.419v-1.197h1.419zm-15.164 0v1.197h-1.582v-1.197h1.582zm2.127 0v1.197h-1.473v-1.197h1.473zm2.182 0v1.197h-1.582v-1.197H42.6zm2.236 0v1.197h-1.581v-1.197h1.581zm2.073 0v1.197h-1.418v-1.197h1.418zm-10.854 0v1.197h-1.582v-1.197h1.582zm-2.237 0v1.197H32.4v-1.197h1.418zm-2.073 0v1.197h-1.581v-1.197h1.581zm-2.236 0v1.197h-1.582v-1.197h1.582zm-2.182 0v1.197h-1.472v-1.197h1.472zm-2.127 0v1.197h-1.582v-1.197H25.2zm4.31-2.23v1.196h-1.583v-1.196h1.582zm15.326 0v1.196h-1.581v-1.196h1.581zm-24.109 0v1.196H19.31v-1.196h1.418zm2.237 0v1.196h-1.582v-1.196h1.582zm2.236 0v1.196h-1.582v-1.196H25.2zm2.127 0v1.196h-1.472v-1.196h1.472zm4.418 0v1.196h-1.581v-1.196h1.581zm2.073 0v1.196H32.4v-1.196h1.418zm2.237 0v1.196h-1.582v-1.196h1.582zm10.854 0v1.196h-1.418v-1.196h1.418zm-4.309 0v1.196h-1.582v-1.196H42.6zm-2.182 0v1.196h-1.473v-1.196h1.473zm-2.127 0v1.196h-1.582v-1.196h1.582zm15.164 0v1.196h-1.419v-1.196h1.419zm-2.073 0v1.196H49.8v-1.196h1.582zm-2.237 0v1.196h-1.581v-1.196h1.581zM28.473 7.834h-.655v.707h.655v-.707zm-1.037 0h-.654v.707h.654v-.707zm-2.236 0h-.655v.707h.655v-.707zm4.418 0h-.654v.707h.654v-.707zm1.091 0h-.654v.707h.654v-.707zm1.036 0h-.654v.707h.654v-.707zm1.146 0h-.655v.707h.655v-.707zm1.036 0h-.654v.707h.654v-.707zm1.091 0h-.654v.707h.654v-.707zm6.546 0h-.655v.707h.655v-.707zm-5.4 0h-.655v.707h.655v-.707zm-9.819 0h-.654v.707h.654v-.707zm10.855 0h-.655v.707h.655v-.707zm1.09 0h-.654v.707h.655v-.707zm1.146 0h-.654v.707h.654v-.707zm1.037 0h-.655v.707h.655v-.707zm2.236 0h-.654v.707h.654v-.707zm1.036 0h-.654v.707h.654v-.707zm-23.945 0h-.655v.707h.655v-.707zm-1.145 0H18v.707h.655v-.707zm2.236 0h-.655v.707h.655v-.707zm1.036 0h-.654v.707h.654v-.707zm1.146 0h-.655v.707h.655v-.707zm1.09 0h-.654v.707h.655v-.707zm30.492 0H54v.707h.655v-.707zm-1.091 0h-.655v.707h.655v-.707zm-1.037 0h-.654v.707h.654v-.707zm-1.145 0h-.655v.707h.655v-.707zm-1.091 0h-.655v.707h.655v-.707zm-1.036 0H48.6v.707h.655v-.707zm-1.146 0h-.654v.707h.654v-.707zm-1.09 0h-.655v.707h.654v-.707zm-1.037 0h-.655v.707h.655v-.707zm-1.146 0h-.654v.707h.654v-.707zM36.6 6.147h-1.582V6.8H36.6v-.653z"/>
</svg>
