<svg xmlns="http://www.w3.org/2000/svg" width="160" height="42" viewBox="0 0 160 42">
    <g fill="none" fill-rule="evenodd">
        <path fill="#FFF" d="M20.936 11h-.924V3.3h5.06v.88h-4.136V11zm7.863-7.7h4.741V11h-.924V4.18h-2.937c-.308 3.509-.594 6.919-2.607 6.93-.209 0-.44-.033-.682-.121v-.88c.154.055.286.077.528.077 1.397 0 1.617-3.487 1.881-6.886zm8.248 3.85c0-1.991 1.331-3.982 4.026-3.982s4.026 1.991 4.026 3.982-1.331 3.982-4.026 3.982-4.026-1.991-4.026-3.982zm7.117 0c0-1.584-1.001-3.102-3.091-3.102-2.09 0-3.091 1.518-3.091 3.102 0 1.584 1.001 3.102 3.091 3.102 2.09 0 3.091-1.518 3.091-3.102zm5.366-.737h2.046c1.419 0 2.959.418 2.959 2.299S52.995 11 51.576 11h-2.97V3.3h5.335v.88H49.53v2.233zm0 3.707h2.09c.979 0 1.98-.154 1.98-1.408 0-1.265-1.012-1.419-1.98-1.419h-2.09v2.827zm8.292.88h-1.001l3.355-7.7h1.023l3.344 7.7h-.99l-.792-1.859h-4.147L57.822 11zm2.739-6.457l-1.584 3.74h3.421l-1.595-3.74c-.044-.099-.077-.187-.121-.297-.044.11-.077.198-.121.297zM69.15 3.3h4.741V11h-.924V4.18H70.03c-.308 3.509-.594 6.919-2.607 6.93-.209 0-.44-.033-.682-.121v-.88c.154.055.286.077.528.077 1.397 0 1.617-3.487 1.881-6.886zM80.544 11h-2.629V3.3h.924v2.739h1.705c1.782 0 3.267.55 3.267 2.475S82.326 11 80.544 11zm-1.705-4.081v3.201h1.749c1.265 0 2.288-.297 2.288-1.606 0-1.298-1.034-1.595-2.288-1.595h-1.749zM92.675 3.3h.924V11h-.924V7.579H88.11V11h-.924V3.3h.924v3.399h4.565V3.3zm4.431 3.85c0-1.991 1.331-3.982 4.026-3.982s4.026 1.991 4.026 3.982-1.331 3.982-4.026 3.982-4.026-1.991-4.026-3.982zm7.117 0c0-1.584-1.001-3.102-3.091-3.102-2.09 0-3.091 1.518-3.091 3.102 0 1.584 1.001 3.102 3.091 3.102 2.09 0 3.091-1.518 3.091-3.102zm4.442-3.85h5.192v.88h-4.268v2.497h3.938v.88h-3.938v2.563h4.334V11h-5.258V3.3zm-89.511 16h6.336v.88h-2.706V27h-.924v-6.82h-2.706v-.88zm9.502 0h5.192v.88H29.58v2.497h3.938v.88H29.58v2.563h4.334V27h-5.258v-7.7zm8.908 7.7h-1.1l2.981-3.96-2.816-3.74h1.1l2.266 3.003L42.25 19.3h1.1l-2.805 3.74 2.97 3.96h-1.1l-2.42-3.223L37.564 27zm14.474-7.7h.924V27h-.924v-3.421h-4.565V27h-.924v-7.7h.924v3.399h4.565V19.3zm4.431 3.85c0-1.991 1.331-3.982 4.026-3.982s4.026 1.991 4.026 3.982-1.331 3.982-4.026 3.982-4.026-1.991-4.026-3.982zm7.117 0c0-1.584-1.001-3.102-3.091-3.102-2.09 0-3.091 1.518-3.091 3.102 0 1.584 1.001 3.102 3.091 3.102 2.09 0 3.091-1.518 3.091-3.102zm5.63-3.85h4.741V27h-.924v-6.82h-2.937c-.308 3.509-.594 6.919-2.607 6.93-.209 0-.44-.033-.682-.121v-.88c.154.055.286.077.528.077 1.397 0 1.617-3.487 1.881-6.886zm8.248 3.85c0-1.991 1.331-3.982 4.026-3.982s4.026 1.991 4.026 3.982-1.331 3.982-4.026 3.982-4.026-1.991-4.026-3.982zm7.117 0c0-1.584-1.001-3.102-3.091-3.102-2.09 0-3.091 1.518-3.091 3.102 0 1.584 1.001 3.102 3.091 3.102 2.09 0 3.091-1.518 3.091-3.102zM89.947 27h-.924v-7.7h5.06v.88h-4.136V27zm13.726 0h-.924v-6.16L98.118 27h-.858v-7.7h.924v6.149l4.631-6.149h.858V27zm9.535 0h-.924v-3.014c-.781.264-1.54.385-2.255.385-1.76-.022-2.838-.88-2.838-2.618V19.3h.924v2.497c0 1.232.847 1.683 2.134 1.694.66 0 1.353-.121 2.035-.385V19.3h.924V27zm4.024-7.7h5.192v.88h-4.268v2.497h3.938v.88h-3.938v2.563h4.334V27h-5.258v-7.7zm8.16 3.905c.011-2.673 2.046-4.037 4.048-4.037.77 0 1.518.176 2.167.517v.924c-.561-.374-1.287-.561-2.013-.561-1.595 0-3.256.957-3.267 3.157-.011 2.057 1.705 3.047 3.3 3.047.792 0 1.507-.187 2.035-.561v.924c-.638.33-1.408.517-2.233.517-1.936 0-4.048-1.364-4.037-3.927zM136.071 27h-.924v-7.7h.924v3.333h1.749l2.321-3.333h1.056l-2.618 3.751L141.428 27h-1.056l-2.519-3.487h-1.782V27zm7.533-3.85c0-1.991 1.331-3.982 4.026-3.982s4.026 1.991 4.026 3.982-1.331 3.982-4.026 3.982-4.026-1.991-4.026-3.982zm7.117 0c0-1.584-1.001-3.102-3.091-3.102-2.09 0-3.091 1.518-3.091 3.102 0 1.584 1.001 3.102 3.091 3.102 2.09 0 3.091-1.518 3.091-3.102zm4.442-3.85h5.192v.88h-4.268v2.497h3.938v.88h-3.938v2.563h4.334V27h-5.258v-7.7zm-133.71 16h4.741V43h-.924v-6.82h-2.937c-.308 3.509-.594 6.919-2.607 6.93-.209 0-.44-.033-.682-.121v-.88c.154.055.286.077.528.077 1.397 0 1.617-3.487 1.881-6.886zM36.631 43h-.924v-6.16L31.076 43h-.858v-7.7h.924v6.149l4.631-6.149h.858V43zm4.101 1.815h-.88V42.12h.935c.99-1.793 1.254-4.455 1.254-6.82h4.73v6.82h.968v2.695h-.88V43h-6.127v1.815zm2.255-8.635c-.121 2.079-.396 4.422-1.166 5.94h4.026v-5.94h-2.86zm8.116-.88h5.192v.88h-4.268v2.497h3.938v.88h-3.938v2.563h4.334V43h-5.258v-7.7zm8.798 0h2.629c1.782 0 3.267.561 3.267 2.486 0 1.925-1.485 2.486-3.267 2.486h-1.705V43h-.924v-7.7zm4.961 2.486c0-1.309-1.023-1.606-2.288-1.606h-1.749v3.212h1.749c1.254 0 2.288-.308 2.288-1.606zm3.793 1.419c.011-2.673 2.046-4.037 4.048-4.037.77 0 1.518.176 2.167.517v.924c-.561-.374-1.287-.561-2.013-.561-1.595 0-3.256.957-3.267 3.157-.011 2.057 1.705 3.047 3.3 3.047.792 0 1.507-.187 2.035-.561v.924c-.638.33-1.408.517-2.233.517-1.936 0-4.048-1.364-4.037-3.927zm8.897-3.905h6.336v.88h-2.706V43h-.924v-6.82h-2.706v-.88zm9.502 0h3.157c1.573 0 2.618.649 2.618 1.947 0 .979-.627 1.529-1.232 1.705.638.176 1.54.682 1.54 1.936 0 1.749-1.716 2.112-2.838 2.112h-3.245v-7.7zm5.148 5.489c0-1.199-1.1-1.331-1.837-1.331h-2.387v2.662h2.134c.968 0 2.09-.066 2.09-1.331zm-.308-3.41c0-.913-.671-1.199-1.76-1.199h-2.156v2.398h2.409c.803 0 1.507-.319 1.507-1.199zm4.255 1.771c0-1.991 1.331-3.982 4.026-3.982s4.026 1.991 4.026 3.982-1.331 3.982-4.026 3.982-4.026-1.991-4.026-3.982zm7.117 0c0-1.584-1.001-3.102-3.091-3.102-2.09 0-3.091 1.518-3.091 3.102 0 1.584 1.001 3.102 3.091 3.102 2.09 0 3.091-1.518 3.091-3.102z" transform="translate(-1 -3)"/>
        <path fill="#00ECE4" d="M10.278 39.957v.924H9.277c-.066 2.398-1.221 3.971-3.256 3.971-2.035 0-3.19-1.573-3.256-3.971H1.764v-.924h1.001c.066-2.398 1.221-3.971 3.256-3.971 2.035 0 3.19 1.573 3.256 3.971h1.001zm-4.257 3.96c1.441 0 2.343-1.012 2.42-3.036h-4.84c.077 2.024.979 3.036 2.42 3.036zm-2.42-3.96h4.84c-.077-2.024-.979-3.036-2.42-3.036-1.441 0-2.343 1.012-2.42 3.036zm2.42-4.785c-1.991 0-3.982-1.331-3.982-4.026S4.03 27.12 6.021 27.12s3.982 1.331 3.982 4.026-1.991 4.026-3.982 4.026zm0-7.117c-1.584 0-3.102 1.001-3.102 3.091 0 2.09 1.518 3.091 3.102 3.091 1.584 0 3.102-1.001 3.102-3.091 0-2.09-1.518-3.091-3.102-3.091zm-3.85-2.442v-2.629c0-1.782.561-3.267 2.486-3.267 1.925 0 2.486 1.485 2.486 3.267v1.705h2.728v.924h-7.7zm2.486-4.961c-1.309 0-1.606 1.023-1.606 2.288v1.749h3.212V22.94c0-1.254-.308-2.288-1.606-2.288zm3.465-5.467c1.507.715 1.881 1.573 1.881 2.42 0 .341-.055.715-.154 1.045H8.98c.077-.253.143-.572.143-.88 0-.561-.11-1.078-1.012-1.551l-.286-.132-5.654 3.179v-1.023l4.785-2.651-4.785-2.222v-.99l5.951 2.805zM2.171 4.24v-.792h7.7v.924H3.92l4.136 2.761v.572L3.92 10.466h5.951v.924h-7.7v-.792l4.752-3.179L2.171 4.24z" transform="translate(-1 -3)"/>
    </g>
</svg>
