<svg xmlns="http://www.w3.org/2000/svg" width="210" height="40"><g fill="none" fill-rule="evenodd"><path fill="#27CAC4" d="M102.293 9.779v10.537h-1.235v-9.378h-3.356v9.378h-1.235V9.779h5.826zm4.862 0c2.002 0 3.13 1.204 3.13 3.327 0 2.182-1.128 3.371-3.13 3.371h-1.43v3.839h-1.235V9.779h2.665zm0 5.524c1.264 0 1.881-.692 1.881-2.197 0-1.43-.617-2.153-1.881-2.153h-1.43v4.35h1.43zm4.726 5.013V9.779h1.22v5.615c0 .632-.03 1.806-.09 2.528l.044.03c.166-.436.452-1.174.738-1.79l2.8-6.383h1.324v10.537h-1.219V14.58c0-.632.03-1.792.06-2.439l-.03-.03c-.15.391-.451 1.174-.662 1.656l-2.89 6.548h-1.295zm17.401-10.537v10.537h-1.234v-9.378h-3.357v9.378h-1.234V9.779h5.825zm5.043 10.732c-1.957 0-3.131-1.34-3.131-3.507v-3.929c0-2.152 1.174-3.492 3.13-3.492 1.957 0 3.117 1.34 3.117 3.492v3.93c0 2.167-1.16 3.506-3.116 3.506zm0-1.204c1.219 0 1.851-.828 1.851-2.303v-3.929c0-1.46-.632-2.288-1.851-2.288-1.235 0-1.867.828-1.867 2.288v3.93c0 1.474.632 2.302 1.867 2.302zm10.747-.15h.918v2.905h-1.204v-1.746h-5.238v1.746h-1.204v-2.905h.602c.692-.693 1.114-2.198 1.174-3.974l.18-5.404h4.772v9.378zm-1.234 0v-8.219h-2.378l-.166 4.591c-.06 1.58-.361 2.785-.858 3.628h3.402zm9.317 0h.919v2.905h-1.205v-1.746h-5.238v1.746h-1.204v-2.905h.602c.692-.693 1.114-2.198 1.174-3.974l.18-5.404h4.772v9.378zm-1.234 0v-8.219h-2.378l-.166 4.591c-.06 1.58-.361 2.785-.858 3.628h3.402zm4.832 0h3.974v1.159h-5.208V9.779h5.042v1.144h-3.808V14.4h3.537v1.13h-3.537v3.627zm8.324-9.378c2.002 0 3.131 1.204 3.131 3.327 0 2.182-1.129 3.371-3.13 3.371h-1.43v3.839h-1.235V9.779h2.664zm0 5.524c1.265 0 1.882-.692 1.882-2.197 0-1.43-.617-2.153-1.882-2.153h-1.43v4.35h1.43zm12.87 5.013l-2.815-4.667-.496.738v3.929h-1.19v-3.914l-.511-.753-2.8 4.667h-1.43l3.522-5.705-3.266-4.832h1.43l2.243 3.432.812 1.34V9.779h1.19v4.772l.873-1.415 2.182-3.357h1.43l-3.281 4.832 3.537 5.705h-1.43zm7.406 0l-2.92-4.877-.723 1.053v3.824h-1.234V9.779h1.234v4.817l.783-1.265 2.378-3.552h1.49l-3.19 4.591 3.612 5.946h-1.43zm3.763-1.16h3.974v1.16h-5.208V9.779h5.043v1.144h-3.809V14.4h3.538v1.13h-3.538v3.627zm-86.823 9.15v10.536h-1.235v-9.378h-3.356v9.378h-1.235V28.305h5.826zm4.862 0c2.002 0 3.13 1.203 3.13 3.326 0 2.183-1.128 3.372-3.13 3.372h-1.43v3.838h-1.235V28.305h2.665zm0 5.524c1.264 0 1.881-.693 1.881-2.198 0-1.43-.617-2.153-1.881-2.153h-1.43v4.35h1.43zm9.227 5.012l-.557-2.288h-3.056l-.557 2.288h-1.294l2.71-10.537h1.339l2.71 10.537h-1.295zm-3.342-3.432h2.514l-.858-3.567a25.204 25.204 0 01-.376-1.972h-.045c-.06.406-.211 1.294-.377 1.972l-.858 3.567zm10.16-2.002c.994.316 1.596 1.22 1.596 2.484 0 1.881-1.159 2.95-3.01 2.95h-2.875V28.305h2.68c1.73 0 2.799 1.039 2.799 2.8 0 1.144-.467 1.972-1.19 2.303zm-1.7-3.944h-1.355v3.417h1.385c1.069 0 1.595-.602 1.595-1.746 0-1.144-.526-1.67-1.625-1.67zm.18 8.22c1.25 0 1.867-.558 1.867-1.792 0-1.22-.783-1.852-1.972-1.852h-1.43v3.643h1.535zm4.757 1.158V28.305h1.22v5.615c0 .632-.03 1.806-.091 2.529l.045.03c.166-.437.452-1.174.738-1.791l2.8-6.383h1.324v10.537h-1.22v-5.735c0-.632.031-1.791.061-2.438l-.03-.03a48.24 48.24 0 01-.662 1.655l-2.89 6.548h-1.295zm13.156-10.537v1.16h-2.258v9.377h-1.25v-9.378h-2.257v-1.159h5.765zm2.59 9.378h3.973v1.16h-5.208V28.304h5.042v1.144h-3.808v3.477h3.537v1.13h-3.537v3.627zm6.17-9.378h4.878v10.537h-1.235v-9.378h-2.453c-.15 3.191-.286 5.886-.467 7.165-.226 1.641-1.008 2.364-2.333 2.364v-1.16c.677 0 1.009-.496 1.144-1.444.15-1.114.301-3.779.467-8.084zm7.09 10.537V28.305h1.25v4.29h1.52c1.912 0 3.07 1.204 3.07 3.101 0 2.017-1.158 3.146-3.07 3.146h-2.77zm1.25-1.144h1.475c1.114 0 1.851-.677 1.851-2.002 0-1.28-.737-1.927-1.851-1.927h-1.475v3.93zm8.685 1.325c-1.776 0-2.965-1.144-2.965-3.222v-4.455c0-2.077 1.174-3.236 2.935-3.236 1.806 0 2.92 1.113 3.026 3.146h-1.22c-.09-1.355-.722-1.987-1.82-1.987-1.01 0-1.687.662-1.687 2.077V35.8c0 1.4.708 2.063 1.731 2.063 1.114 0 1.731-.648 1.852-1.972h1.219c-.12 2.002-1.234 3.13-3.07 3.13zm9.559-10.718v1.16h-2.258v9.377h-1.25v-9.378h-2.258v-1.159h5.766zm5.644 5.103c.994.316 1.596 1.22 1.596 2.484 0 1.881-1.16 2.95-3.01 2.95h-2.876V28.305h2.68c1.73 0 2.8 1.039 2.8 2.8 0 1.144-.467 1.972-1.19 2.303zm-1.7-3.944h-1.355v3.417h1.385c1.068 0 1.595-.602 1.595-1.746 0-1.144-.527-1.67-1.626-1.67zm.18 8.22c1.25 0 1.867-.558 1.867-1.792 0-1.22-.783-1.852-1.972-1.852h-1.43v3.643h1.535zm9.257 1.158l-.557-2.288h-3.055l-.557 2.288h-1.295l2.71-10.537h1.34l2.709 10.537h-1.295zm-3.341-3.432h2.514l-.858-3.567a25.205 25.205 0 01-.377-1.972h-.045a24.98 24.98 0 01-.376 1.972l-.858 3.567zm11.876-7.105c2.002 0 3.131 1.204 3.131 3.327 0 2.183-1.129 3.372-3.13 3.372h-1.43v3.838h-1.235V28.305h2.664zm0 5.525c1.265 0 1.882-.693 1.882-2.198 0-1.43-.617-2.153-1.882-2.153h-1.43v4.35h1.43zm7.963 5.9v-1.174h-.27c-2.168 0-3.568-1.37-3.568-3.808v-2.333c0-2.454 1.4-3.839 3.567-3.839h.271v-1.099h1.22v1.1h.27c2.183 0 3.583 1.384 3.583 3.838v2.333c0 2.438-1.4 3.808-3.583 3.808h-.27v1.174h-1.22zm-.286-2.363h.286v-7.602h-.286c-1.475 0-2.318.843-2.318 2.65v2.333c0 1.791.843 2.619 2.318 2.619zm1.505 0h.301c1.476 0 2.319-.828 2.319-2.62v-2.332c0-1.807-.843-2.65-2.319-2.65h-.3v7.602z"/><path fill="#FFF" d="M18.295 30.552h1.831v4.976h-1.831v-4.976zm3.158 0h1.831v4.976h-1.831v-4.976zm3.158 0h1.831v4.976h-1.831v-4.976zm3.22 0h1.832v4.976h-1.831v-4.976zm3.032 0h1.958v4.976h-1.958v-4.976zm3.158 0h1.958v4.976H34.02v-4.976zm3.221 0h1.832v4.976h-1.832v-4.976zm3.158 0h1.832v4.976H40.4v-4.976zm3.158 0h1.831v4.976h-1.831v-4.976zm3.22 0h1.833v4.976h-1.832v-4.976zm3.033 0h1.957v4.976h-1.957v-4.976zm3.157 0h1.958v4.976h-1.958v-4.976zm3.221 0h1.832v4.976H56.19v-4.976zm3.158 0h1.832v4.976h-1.832v-4.976zm3.158 0h1.832v4.976h-1.832v-4.976zm3.221 0h1.832v4.976h-1.832v-4.976zm-47.431 5.543h1.831v1.952h-1.831v-1.952zm3.158 0h1.831v1.952h-1.831v-1.952zm3.158 0h1.831v1.952h-1.831v-1.952zm3.22 0h1.832v1.952h-1.831v-1.952zm3.032 0h1.958v2.015h-1.958v-2.015zm3.158.063l1.958-.063v2.015H34.02v-1.952zm3.221-.063h1.832v1.952h-1.832v-1.952zm3.158 0h1.832v1.952H40.4v-1.952zm3.158 0h1.831v1.952h-1.831v-1.952zm3.22 0h1.833v1.952h-1.832v-1.952zm3.033 0l1.957.063v1.952h-1.957v-2.015zm3.157.063l1.958-.063v2.015h-1.958v-1.952zm3.221-.063h1.832v1.952H56.19v-1.952zm3.158 0h1.832v1.952h-1.832v-1.952zm3.158 0h1.832v1.952h-1.832v-1.952zm3.221 0h1.832v1.952h-1.832v-1.952zM22.78 26.646h1.642v.693H22.78v-.693zm2.4 0h1.832v.693H25.18v-.693zm2.59 0h1.83v.693h-1.832v-.693zm2.589 0H32v.693h-1.642v-.693zm12.568 0h1.832v.693h-1.832v-.693zm-2.59 0h1.832v.693h-1.831v-.693zm-2.4 0h1.643v.693h-1.642v-.693zm-5.178 0h1.831v.693h-1.831v-.693zm2.59 0h1.83v.693h-1.83v-.693zm22.736 0h1.832v.693h-1.832v-.693zm-2.59 0h1.832v.693h-1.831v-.693zm-2.4 0h1.643v.693h-1.642v-.693zm-2.589 0h1.832v.693h-1.832v-.693zm-2.59 0h1.832v.693h-1.831v-.693zm-2.4 0h1.706v.693h-1.705v-.693zM22.78 24.253h1.642v1.385H22.78v-1.385zm37.895 2.393h1.642v.693h-1.642v-.693zM25.18 24.253h1.832v1.385H25.18v-1.385zm2.59 0h1.83v1.385h-1.832v-1.385zm2.589 0h1.705v1.385h-1.705v-1.385zm2.4 0h1.831v1.385h-1.831v-1.385zm2.59 0h1.83v1.385h-1.83v-1.385zm2.589 0h1.642v1.385h-1.642v-1.385zm2.4 0h1.831v1.385h-1.831v-1.385zm12.758 0h1.642v1.385h-1.642v-1.385zm-2.59 0h1.832v1.385h-1.832v-1.385zm-2.59 0h1.832v1.385h-1.831v-1.385zm-2.4 0h1.706v1.385h-1.705v-1.385zm-2.589 0h1.832v1.385h-1.832v-1.385zm17.748 0h1.642v1.385h-1.642v-1.385zm-2.59 0h1.832v1.385h-1.832v-1.385zm-2.59 0h1.832v1.385h-1.831v-1.385zM22.78 21.67h1.642v1.386H22.78V21.67zm2.4 0h1.832v1.386H25.18V21.67zm2.59 0h1.83v1.386h-1.832V21.67zm2.589 0h1.705v1.386h-1.705V21.67zm2.4 0h1.831v1.386h-1.831V21.67zm2.59 0h1.83v1.386h-1.83V21.67zm2.589 0h1.642v1.386h-1.642V21.67zm2.4 0h1.831v1.386h-1.831V21.67zm12.758 0h1.642v1.386h-1.642V21.67zm-2.59 0h1.832v1.386h-1.832V21.67zm-2.59 0h1.832v1.386h-1.831V21.67zm-2.4 0h1.706v1.386h-1.705V21.67zm-2.589 0h1.832v1.386h-1.832V21.67zm17.748 0h1.642v1.386h-1.642V21.67zm-2.59 0h1.832v1.386h-1.832V21.67zm-2.59 0h1.832v1.386h-1.831V21.67zM22.78 19.213h1.642V20.6H22.78v-1.386zm2.4 0h1.832V20.6H25.18v-1.386zm2.59 0h1.83V20.6h-1.832v-1.386zm2.589 0h1.705V20.6h-1.705v-1.386zm2.4 0h1.831V20.6h-1.831v-1.386zm2.59 0h1.83V20.6h-1.83v-1.386zm2.589 0h1.642V20.6h-1.642v-1.386zm2.4 0h1.831V20.6h-1.831v-1.386zm12.758 0h1.642V20.6h-1.642v-1.386zm-2.59 0h1.832V20.6h-1.832v-1.386zm-2.59 0h1.832V20.6h-1.831v-1.386zm-2.4 0h1.706V20.6h-1.705v-1.386zm-2.589 0h1.832V20.6h-1.832v-1.386zm17.748 0h1.642V20.6h-1.642v-1.386zm-2.59 0h1.832V20.6h-1.832v-1.386zm-2.59 0h1.832V20.6h-1.831v-1.386zm-32.715-2.52h1.642v1.387H22.78v-1.386zm2.4 0h1.832v1.387H25.18v-1.386zm2.59 0h1.83v1.387h-1.832v-1.386zm2.589 0h1.705v1.387h-1.705v-1.386zm2.4 0h1.831v1.387h-1.831v-1.386zm2.59 0h1.83v1.387h-1.83v-1.386zm2.589 0h1.642v1.387h-1.642v-1.386zm2.4 0h1.831v1.387h-1.831v-1.386zm12.758 0h1.642v1.387h-1.642v-1.386zm-2.59 0h1.832v1.387h-1.832v-1.386zm-2.59 0h1.832v1.387h-1.831v-1.386zm-2.4 0h1.706v1.387h-1.705v-1.386zm-2.589 0h1.832v1.387h-1.832v-1.386zm17.748 0h1.642v1.387h-1.642v-1.386zm-2.59 0h1.832v1.387h-1.832v-1.386zm-2.59 0h1.832v1.387h-1.831v-1.386zM22.78 14.112h1.642v1.386H22.78v-1.386zm2.4 0h1.832v1.386H25.18v-1.386zm2.59 0h1.83v1.386h-1.832v-1.386zm2.589 0h1.705v1.386h-1.705v-1.386zm2.4 0h1.831v1.386h-1.831v-1.386zm2.59 0h1.83v1.386h-1.83v-1.386zm2.589 0h1.642v1.386h-1.642v-1.386zm2.4 0h1.831v1.386h-1.831v-1.386zm12.758 0h1.642v1.386h-1.642v-1.386zm-2.59 0h1.832v1.386h-1.832v-1.386zm-2.59 0h1.832v1.386h-1.831v-1.386zm-2.4 0h1.706v1.386h-1.705v-1.386zm-2.589 0h1.832v1.386h-1.832v-1.386zm17.748 0h1.642v1.386h-1.642v-1.386zm-2.59 0h1.832v1.386h-1.832v-1.386zm-2.59 0h1.832v1.386h-1.831v-1.386zm25.327 24.566l2.968.126V40H.421v-1.197h4.421V26.835H5.6v.567H8v-.63h3.79v.567h2.589v-.567h.568v.63l1.895 1.953h3.916l.063-15.81h.568v15.81h1.39v-1.323h1.642v1.323h.758v-1.323h1.832v1.323h.757v-1.323H29.6v1.323h.758v-1.323H32v1.323h.758v-1.323h1.831v1.323h.758v-1.323h1.832v1.323h.758v-1.323h1.642v1.323h.758v-1.323h1.831v1.323h.758v-1.323h1.832v1.323h.758v-1.323h1.642v1.323h.758v-1.323h1.831v1.323h.758v-1.323h1.832v1.323h.758v-1.323h1.642v1.323h.758v-1.323h1.831v1.323h.758v-1.323h1.832v1.323h.758v-1.323h1.642v1.323h1.39V13.48h.568v-2.393h-.632v1.953h-.758v-1.953h-.442v1.953h-.758v-1.953h-.442v1.953h-.758v-1.953h-.631v1.953h-.758v-1.953h-.506v1.953h-.694v-1.953h-.442v1.953h-.758v-1.953h-.569v1.953h-.758v-1.953h-.442v1.953h-.758v-1.953h-.442v1.953h-.758v-1.953h-.631v1.953h-.758v-1.953h-.505v1.953h-.758v-1.953h-.442v1.953h-.758v-1.953h-.632v1.953h-.758v-1.953h-.442v1.953h-.758v-1.953h-.442v1.953h-.758v-1.953h-.568v1.953H44v-1.953h-.442v1.953H42.8v-1.953h-.442v1.953H41.6v-1.953h-.632v1.953h-.757v-1.953h-.443v1.953h-.757v-1.953h-.443v1.953h-.757v-1.953h-.632v1.953h-.758v-1.953h-.442v1.953h-.758v-1.953h-.442v1.953h-.758v-1.953h-.632v1.953h-.757v-1.953h-.443v1.953h-.757v-1.953h-.443v1.953h-.757v-1.953H29.6v1.953h-.758v-1.953H28.4v1.953h-.758v-1.953H27.2v1.953h-.758v-1.953h-.631v1.953h-.758v-1.953h-.442v1.953h-.758v-1.953h-.442v1.953h-.758v-1.953h-.632v1.953h-.632v-1.953h-.568v2.582h-.632V9.702l.632-.63h6.821v-.63H29.6v.63h10.737v-3.78h1.2V.633h3.79v1.952h-3.159v2.583h1.39v3.78h10.61v-.63h1.958v.63h8.21v.63h.632v3.778h-.631v15.748h4.42l1.959-1.197V26.71h.568v.567h2.59v-.63h3.79v.63h2.4v-.567h.757v11.968zm-58.8-28.156v-.819h-.758v.819h.758zm1.326 0v-.819h-.758v.819h.758zm1.264 0v-.819h-.758v.819h.758zm1.2 0v-.819h-.758v.819h.758zm1.326 0v-.819h-.758v.819h.758zm1.263 0v-.819h-.758v.819h.758zm1.2 0v-.819h-.758v.819h.758zm1.326 0v-.819h-.758v.819h.758zm.506 0h.757v-.819h-.757v.819zm1.957 0v-.819h-.757v.819h.757zm1.327 0v-.819h-.758v.819h.758zm.505 0h.758v-.819h-.758v.819zm1.2 0h.758v-.819h-.758v.819zm2.084 0v-.819h-.758v.819h.758zm1.2 0v-.819h-.758v.819h.758zm1.263 0v-.819h-.757v.819h.757zm1.327 0v-.819h-.758v.819h.758zm-1.327-2.016H42.8V7.75h-1.832v.756zm2.527 2.016v-.819h-.758v.819h.758zm.505 0h.758v-.819H44v.819zm2.084 0v-.819h-.758v.819h.758zm1.2 0v-.819h-.758v.819h.758zm1.263 0v-.819h-.758v.819h.758zm1.327 0v-.819h-.758v.819h.758zm1.2 0v-.819h-.758v.819h.758zm1.263 0v-.819h-.758v.819h.758zm1.326 0v-.819h-.758v.819h.758zm1.2 0v-.819h-.758v.819h.758zm1.263 0v-.819h-.758v.819h.758zm1.327 0v-.819h-.758v.819h.758zm1.2 0v-.819h-.758v.819h.758zm1.263 0v-.819h-.758v.819h.758zm1.326 0v-.819h-.758v.819h.758zm1.2 0v-.819h-.758v.819h.758zm1.263 0v-.819h-.758v.819h.758zM13.242 38.677l1.2.063V28.032H5.663V38.74H6.8v-8.755h.632v8.755h1.326v-9.51H8v-.63h3.79v.567h-.569v9.511h1.39v-8.755h.631v8.755zm55.453 0v-8.755H17.032v8.755h51.663zm10.168 0h1.2V27.97h-8.779v10.708h1.2v-8.755h.821v8.755h1.2v-9.511h-.631v-.63h3.79v.63h-.759v9.511h1.2v-8.755h.758v8.755z"/></g></svg>