<svg xmlns="http://www.w3.org/2000/svg"
     width="99"
     height="45">
    <path d="M7.336 0L0 12.601h14.672zm16.641 26.177l-7.33-12.61H31.32zM.015 40.736H3.68l11-.003L7.346 28.13zm8.324-13.582l7.333 12.603 7.337-12.603zM.007 13.575l7.335 12.603 7.336-12.603zm66.4 27.143h-10.68V15.402h10.251c4.98 0 7.884 2.773 7.884 7.11 0 2.813-1.859 4.625-3.153 5.229 1.541.71 3.509 2.312 3.509 5.69 0 4.732-3.26 7.287-7.81 7.287m-.826-20.904h-4.878v5.828h4.878c2.118 0 3.3-1.172 3.3-2.917 0-1.737-1.182-2.911-3.3-2.911m.32 10.272h-5.198v6.228h5.198c2.26 0 3.341-1.424 3.341-3.132 0-1.707-1.08-3.096-3.34-3.096m-21.697 1.106h-4.91v9.525h-4.981V15.401h9.89c5.275 0 8.429 3.595 8.429 7.896 0 4.302-3.154 7.895-8.428 7.895m-.25-11.379h-4.66v6.933h4.66c2.26 0 3.694-1.388 3.694-3.45 0-2.06-1.434-3.483-3.694-3.483m48.823 20.923l-6.563-11.519-3.295 3.912v7.607h-4.986V15.42h4.986v11.023l8.996-11.023h6.058l-8.457 10.064 9.066 15.252z"
          fill="#FFF" fill-rule="evenodd" opacity=".9"/>
</svg>